<svg xmlns="http://www.w3.org/2000/svg" xml:space="preserve" width="1500" height="1500" data-id="lg_yallJFOaKAT5zYMlma" data-version="1" viewBox="0 0 1500 1500"><path fill="#f7f7ee" stroke="transparent" d="M0 0h1500v1500H0z"/><g data-padding="20"><g transform="translate(-527.397 -535.021)scale(1.66423)"><rect width="292.907" height="311.292" x="230.506" y="216.956" fill="none" rx="0" ry="0" transform="translate(534.04 399.54)"/><path fill="#4c145f" d="m791.53 644.842 1.42 15.05v18.6h7.81q4.61 0 8.95-1.03 4.33-1.03 7.7-3.26 3.37-2.24 5.43-5.79t2.06-8.59q0-4.69-1.99-7.81t-5.22-4.97-7.27-2.59q-4.05-.75-8.1-.75-1.21 0-2.63.07t-2.87.25q-1.46.18-2.84.39-1.39.22-2.45.43m15.62 96.49h-29.11v-91.59l-2.13-14.2q2.13-.29 4.93-.57 2.81-.28 5.79-.46t5.89-.29q2.91-.1 5.19-.1 7.88 0 15.23 1.03 7.34 1.03 13.02 3.72 5.69 2.7 9.09 7.42 3.41 4.73 3.41 12.04 0 7.74-3.73 13.35-3.72 5.61-9.83 8.59l-10.93 3.12 10.43 1q4.33 1.27 8.2 3.3 3.87 2.02 6.78 4.93t4.58 6.89q1.67 3.97 1.67 9.16 0 6.03-1.63 10.79t-4.4 8.38-6.54 6.21q-3.76 2.59-8.05 4.19-4.3 1.6-8.88 2.34-4.58.75-8.98.75m-14.2-51.83v40.47h9.94q7.03 0 12.35-1.03 5.33-1.03 8.95-3.41t5.43-6.32 1.81-9.83q0-5.33-1.84-9.09-1.85-3.76-5.22-6.18-3.38-2.41-8.13-3.51-4.76-1.1-10.51-1.1Zm124.75 35.85 7.74 6.82q-2.21 2.27-4.83 4.19-2.63 1.91-5.82 3.3-3.2 1.38-7.07 2.13-3.87.74-8.63.74-9.44 0-16.11-3.33-6.68-3.34-10.9-8.95-4.23-5.61-6.18-12.85t-1.95-15.12q0-5.04.92-9.98.93-4.93 2.77-9.41 1.85-4.47 4.62-8.3 2.77-3.84 6.46-6.61 3.69-2.76 8.34-4.36t10.26-1.6q7.67 0 13.28 2.49 5.61 2.48 9.3 6.95 3.69 4.48 5.46 10.72 1.78 6.25 1.78 13.85 0 2.2-.14 4.83-.14 2.62-.43 4.97h-49.13q0 5.32 1.46 9.94 1.45 4.61 4.08 8.06 2.62 3.44 6.35 5.39t8.35 1.95q4.54 0 7.91-.67t5.79-1.63q2.41-.96 3.94-1.96 1.52-.99 2.38-1.56m-29.97-30.17h25.92q.07-.78.11-1.56.03-.79.03-1.57 0-4.04-.92-7.45t-2.81-5.93q-1.88-2.52-4.79-3.94t-6.89-1.42q-4.75 0-8.12 1.53-3.38 1.52-5.68 3.9-2.31 2.38-3.7 5.22-1.38 2.84-2.09 5.4l-3.69 7.73Zm-108.98 105.39-2.13-14.91q2.2-.21 5.25-.35 3.06-.15 6.29-.25 3.23-.11 6.39-.15 3.16-.03 5.5-.03 11.29 0 20.91 2.77t16.65 8.8q7.03 6.04 11 15.48 3.98 9.44 3.98 22.72 0 10.37-1.99 18.64t-5.5 14.66-8.45 10.97q-4.93 4.58-10.86 7.52-5.93 2.95-12.61 4.34-6.67 1.38-13.77 1.38h-20.66Zm13.13-4.26 1.78 14.2v70.29h1.42q10.29 0 17.47-2.13 7.17-2.13 11.89-5.64 4.72-3.52 7.38-8.1t3.98-9.48q1.31-4.9 1.6-9.72.28-4.83.28-8.95 0-9.02-1.56-16.58t-5.75-12.99-11.68-8.45-19.28-3.02q-1.14 0-2.41.07-1.28.07-2.42.22-1.28.14-2.7.28m125.82 79.88 7.74 6.81q-2.21 2.27-4.83 4.19-2.63 1.92-5.82 3.3-3.2 1.39-7.07 2.13-3.87.75-8.63.75-9.44 0-16.11-3.34-6.68-3.34-10.9-8.95-4.23-5.6-6.18-12.85-1.95-7.24-1.95-15.12 0-5.04.92-9.98.93-4.93 2.77-9.4 1.85-4.48 4.62-8.31t6.46-6.6 8.34-4.37 10.26-1.6q7.67 0 13.28 2.49 5.61 2.48 9.3 6.96 3.69 4.47 5.46 10.72 1.78 6.25 1.78 13.84 0 2.2-.14 4.83t-.43 4.97h-49.13q0 5.33 1.46 9.94 1.45 4.62 4.08 8.06 2.62 3.44 6.35 5.39 3.73 1.96 8.35 1.96 4.54 0 7.91-.68 3.37-.67 5.79-1.63 2.41-.96 3.94-1.95 1.52-1 2.38-1.56m-29.97-30.18h25.92q.07-.78.11-1.56.03-.78.03-1.56 0-4.05-.92-7.46t-2.81-5.93q-1.88-2.52-4.79-3.94t-6.89-1.42q-4.75 0-8.12 1.53-3.38 1.53-5.68 3.9-2.31 2.38-3.7 5.22-1.38 2.84-2.09 5.4l-3.69 7.74Zm106.15-31.95 12.43-1.42-26.35 80.94-14.62-1.42-25.35-78.1 12.99-1.42 16.97 52.47 3.77 16.47 3.55-16.47Zm25.28 67.45q0-2.41.92-4.54t2.52-3.73 3.69-2.52q2.1-.92 4.51-.92t4.54.92 3.73 2.52 2.52 3.73q.93 2.13.93 4.54t-.93 4.58q-.92 2.17-2.48 3.76-1.56 1.6-3.66 2.56-2.09.96-4.51.96-2.41 0-4.58-.96-2.16-.96-3.76-2.56-1.6-1.59-2.52-3.76t-.92-4.58"/><path fill="#f7f7ee" stroke="#000" stroke-width="7.68" d="M608.51 664.244a107.708 107.708 0 1 0 0 215.416 107.708 107.708 0 1 0 0-215.416Z"/><path d="M569.93 807.295h81.224c3.04 0 5.51-2.47 5.51-5.51v-2.375c0-.475-.19-.95-.475-1.33l-4.085-5.035c-.665-.855-1.045-1.805-1.045-2.85v-40.85a8.07 8.07 0 0 0-8.075-8.075h-64.79a8.075 8.075 0 0 0-8.075 8.075V790.1c0 1.045-.38 2.09-1.045 2.85l-4.085 5.225c-.285.38-.475.855-.475 1.33v2.375c0 3.04 2.47 5.415 5.415 5.415m49.4-7.885a2.757 2.757 0 0 1-2.755 2.755H604.7a2.755 2.755 0 0 1-2.755-2.755v-.57h17.48v.57Zm-41.135-14.82v-35.245h64.79v41.42h-64.79Zm37.05-26.505 3.705 2.09-13.015 22.8-3.705-2.09Zm-15.58 4.845-7.6 7.6 7.6 7.6-3.04 3.04-7.6-7.6-2.945-3.04 3.04-3.04 7.6-7.6Zm32.395 4.56 3.04 3.04-3.04 3.04-7.6 7.6-2.945-3.04 7.6-7.6-7.6-7.6 3.04-3.04Z"/></g><path fill="transparent" stroke="transparent" stroke-width="1.726" d="M288.499 481.574h961.5v536.852H288.5z"/></g></svg>